<?xml version="1.0" encoding="UTF-8"?>
<svg version="1.1" xmlns="http://www.w3.org/2000/svg" width="500" height="500">
<path d="M0 0 C165 0 330 0 500 0 C500 165 500 330 500 500 C335 500 170 500 0 500 C0 335 0 170 0 0 Z " fill="#FEFEFE" transform="translate(0,0)"/>
<path d="M0 0 C1.14443069 -0.00151062 1.14443069 -0.00151062 2.3119812 -0.00305176 C36.24176149 0.02696171 78.74189028 2.63790627 104.4765625 27.79296875 C110.84570541 34.87104453 114.15253157 41.76200069 113.93359375 51.34375 C113.24146777 59.51742821 110.56028689 66.43763273 104.6875 72.25 C94.67400376 80.66340148 81.4941497 84.03270202 68.546875 83.5078125 C51.36844111 81.95893731 36.67365119 77.20780606 25.31640625 63.625 C20.28395831 56.28752195 20.02828642 47.89583962 20.6875 39.25 C20.98186329 37.90752499 21.30003784 36.56862123 21.6875 35.25 C10.22412568 33.77085493 1.67271714 33.42790006 -8.625 39.0625 C-12.26855425 42.02818369 -13.85925213 44.62619847 -14.6640625 49.28515625 C-15.10123994 55.80830383 -13.03400086 60.95129164 -9.3125 66.25 C2.98025609 79.50136551 24.34804006 86.54000126 40.47973633 94.00927734 C67.49516309 106.54480707 67.49516309 106.54480707 76.0625 113.5625 C76.91690674 114.24953003 76.91690674 114.24953003 77.78857422 114.95043945 C85.41662508 121.27695548 92.07861179 128.91924758 95.6875 138.25 C96.04457031 139.16652344 96.40164063 140.08304688 96.76953125 141.02734375 C100.62581415 154.56535818 96.55146955 169.9282412 90.6875 182.25 C79.85389458 200.01989668 63.75803089 210.52101791 44.58154297 217.55224609 C42.96181179 218.14894521 41.35615049 218.78360346 39.75390625 219.42578125 C33.1083661 221.92388706 26.27955023 223.19462861 19.3125 224.4375 C18.37970215 224.60467529 17.4469043 224.77185059 16.48583984 224.9440918 C3.73252899 227.08582708 -9.02710237 227.41569066 -21.92553711 227.38037109 C-24.24404458 227.37501376 -26.56235774 227.3803526 -28.88085938 227.38671875 C-64.08489734 227.40703955 -104.92197633 223.09595891 -132 198.125 C-139.9299364 189.94508311 -143.62121461 180.46315176 -143.45703125 169.25390625 C-142.93114768 158.32405581 -140.13403571 150.44004985 -131.9375 142.9375 C-120.80720862 134.10665343 -108.34240499 133.1454538 -94.54296875 134.52734375 C-81.02098874 136.82105603 -69.26754231 143.66445068 -60.625 154.3203125 C-56.4001993 160.53177543 -53.17303432 167.00671169 -53.21484375 174.57421875 C-53.21967773 176.11625977 -53.21967773 176.11625977 -53.22460938 177.68945312 C-53.23717773 179.29723633 -53.23717773 179.29723633 -53.25 180.9375 C-53.25451172 182.02095703 -53.25902344 183.10441406 -53.26367188 184.22070312 C-53.27546257 186.89719085 -53.29191937 189.57356777 -53.3125 192.25 C-35.16995161 194.84307251 -35.16995161 194.84307251 -18.3125 189.25 C-14.15021385 185.48167509 -11.6284687 182.13771394 -11.00390625 176.4296875 C-10.74842012 169.87995227 -10.80860414 164.71710885 -15.07202148 159.49975586 C-24.81472406 149.71671083 -39.22753178 144.11534303 -51.49365234 138.20043945 C-59.91714915 134.12464046 -68.15581064 129.92504365 -76.1015625 124.96875 C-77.07221146 124.36336143 -77.07221146 124.36336143 -78.06246948 123.7457428 C-83.69346374 120.15040521 -88.6201536 116.00986217 -93.3125 111.25 C-94.38757813 110.19039062 -94.38757813 110.19039062 -95.484375 109.109375 C-107.26980129 96.79227534 -108.80751906 84.03643197 -108.58984375 67.7578125 C-108.05343182 52.02840007 -100.21203318 39.16775982 -89.3125 28.25 C-88.62414062 27.55003906 -87.93578125 26.85007813 -87.2265625 26.12890625 C-73.1662577 12.72196134 -54.86046062 7.20127186 -36.3125 3.25 C-35.33796875 3.0334375 -34.3634375 2.816875 -33.359375 2.59375 C-22.31797417 0.23269573 -11.25398572 0.01034947 0 0 Z " fill="#E07313" transform="translate(262.3125,146.75)"/>
</svg>
